<svg xmlns="http://www.w3.org/2000/svg" viewBox="0 0 1211 713" width="1211" height="713" preserveAspectRatio="none" role="img" aria-label="First Spark Soul Map archive — $44"><rect width="1211" height="713" fill="#070a18"/><rect x="22" y="22" width="1167" height="669" fill="none" stroke="#f5c542" stroke-width="1.5" opacity="0.55"/><rect x="29" y="29" width="1153" height="655" fill="none" stroke="#7b3ff2" stroke-width="0.8" opacity="0.4"/><circle cx="70" cy="70" r="1.4" fill="#f4f6ff" opacity="0.8"/><circle cx="150" cy="110" r="0.9" fill="#f4f6ff" opacity="0.5"/><circle cx="1060" cy="72" r="1.4" fill="#f4f6ff" opacity="0.8"/><circle cx="1140" cy="130" r="0.9" fill="#f4f6ff" opacity="0.5"/><circle cx="60" cy="230" r="1.1" fill="#f4f6ff" opacity="0.6"/><circle cx="1150" cy="240" r="1.2" fill="#f4f6ff" opacity="0.7"/><circle cx="110" cy="330" r="0.9" fill="#f4f6ff" opacity="0.5"/><circle cx="1095" cy="330" r="1" fill="#f4f6ff" opacity="0.6"/><circle cx="55" cy="470" r="1.2" fill="#f4f6ff" opacity="0.7"/><circle cx="1150" cy="470" r="0.9" fill="#f4f6ff" opacity="0.5"/><circle cx="90" cy="560" r="1" fill="#f4f6ff" opacity="0.6"/><circle cx="1110" cy="560" r="1.3" fill="#f4f6ff" opacity="0.75"/><circle cx="160" cy="640" r="0.9" fill="#f4f6ff" opacity="0.5"/><circle cx="1050" cy="650" r="1.1" fill="#f4f6ff" opacity="0.6"/><circle cx="300" cy="520" r="0.8" fill="#f4f6ff" opacity="0.5"/><circle cx="900" cy="520" r="0.9" fill="#f4f6ff" opacity="0.55"/><circle cx="360" cy="640" r="0.8" fill="#f4f6ff" opacity="0.5"/><circle cx="840" cy="640" r="1" fill="#f4f6ff" opacity="0.6"/><circle cx="45" cy="150" r="1" fill="#f4f6ff" opacity="0.6"/><circle cx="1160" cy="360" r="1" fill="#f4f6ff" opacity="0.55"/><circle cx="220" cy="200" r="0.8" fill="#f4f6ff" opacity="0.5"/><circle cx="990" cy="200" r="0.9" fill="#f4f6ff" opacity="0.5"/><circle cx="250" cy="150" r="1.1" fill="#f5c542" opacity="0.55"/><circle cx="960" cy="160" r="1.2" fill="#f5c542" opacity="0.55"/><circle cx="60" cy="400" r="1" fill="#f5c542" opacity="0.5"/><circle cx="1155" cy="400" r="1" fill="#f5c542" opacity="0.5"/><circle cx="605" cy="40" r="1" fill="#f5c542" opacity="0.5"/><text x="605.5" y="62" text-anchor="middle" font-family="system-ui,-apple-system,'Segoe UI',Roboto,'DejaVu Sans',sans-serif" font-size="20" letter-spacing="9" fill="#f5c542">◈   SOUL MAP ARCHIVE   ◈</text><text x="605.5" y="116" text-anchor="middle" font-family="'DejaVu Sans Mono','SFMono-Regular',ui-monospace,Menlo,Consolas,monospace" font-size="40" font-weight="bold" letter-spacing="3" fill="#f4f6ff">FIRST SPARK SOUL MAPS</text><text x="605.5" y="148" text-anchor="middle" font-family="system-ui,-apple-system,'Segoe UI',Roboto,'DejaVu Sans',sans-serif" font-size="17" font-style="italic" fill="#9d5cff">Sacred maps generated with love</text><line x1="320" y1="178" x2="891" y2="178" stroke="#f5c542" stroke-width="1" opacity="0.4"/><polyline points="181,272 393,272 605,272 817,272 1029,272" fill="none" stroke="#f5c542" stroke-width="0.8" opacity="0.28"/><circle cx="181" cy="272" r="50" fill="#0c1024" stroke="#f5c542" stroke-width="1.1"/><text x="181" y="288" text-anchor="middle" font-family="'DejaVu Sans Mono','SFMono-Regular',ui-monospace,Menlo,Consolas,monospace" font-size="44" font-weight="bold" fill="#f4f6ff">5</text><text x="181" y="364" text-anchor="middle" font-family="system-ui,-apple-system,'Segoe UI',Roboto,'DejaVu Sans',sans-serif" font-size="13.5" letter-spacing="2" fill="#b388ff">LIFE PATH</text><circle cx="393" cy="272" r="50" fill="#0c1024" stroke="#f5c542" stroke-width="1.1"/><text x="393" y="288" text-anchor="middle" font-family="'DejaVu Sans Mono','SFMono-Regular',ui-monospace,Menlo,Consolas,monospace" font-size="44" font-weight="bold" fill="#f4f6ff">11</text><text x="393" y="364" text-anchor="middle" font-family="system-ui,-apple-system,'Segoe UI',Roboto,'DejaVu Sans',sans-serif" font-size="13.5" letter-spacing="2" fill="#b388ff">EXPRESSION</text><circle cx="605" cy="272" r="55" fill="#11152e" stroke="#9d5cff" stroke-width="1.4"/><text x="605" y="288" text-anchor="middle" font-family="'DejaVu Sans Mono','SFMono-Regular',ui-monospace,Menlo,Consolas,monospace" font-size="44" font-weight="bold" fill="#ffd76a">4</text><text x="605" y="364" text-anchor="middle" font-family="system-ui,-apple-system,'Segoe UI',Roboto,'DejaVu Sans',sans-serif" font-size="13.5" letter-spacing="2" fill="#b388ff">SOUL URGE</text><circle cx="817" cy="272" r="50" fill="#0c1024" stroke="#f5c542" stroke-width="1.1"/><text x="817" y="288" text-anchor="middle" font-family="'DejaVu Sans Mono','SFMono-Regular',ui-monospace,Menlo,Consolas,monospace" font-size="44" font-weight="bold" fill="#f4f6ff">7</text><text x="817" y="364" text-anchor="middle" font-family="system-ui,-apple-system,'Segoe UI',Roboto,'DejaVu Sans',sans-serif" font-size="13.5" letter-spacing="2" fill="#b388ff">PERSONALITY</text><circle cx="1029" cy="272" r="50" fill="#0c1024" stroke="#f5c542" stroke-width="1.1"/><text x="1029" y="288" text-anchor="middle" font-family="'DejaVu Sans Mono','SFMono-Regular',ui-monospace,Menlo,Consolas,monospace" font-size="44" font-weight="bold" fill="#f4f6ff">7</text><text x="1029" y="364" text-anchor="middle" font-family="system-ui,-apple-system,'Segoe UI',Roboto,'DejaVu Sans',sans-serif" font-size="13.5" letter-spacing="2" fill="#b388ff">YEAR 2026</text><line x1="430" y1="408" x2="585" y2="408" stroke="#f5c542" stroke-width="0.8" opacity="0.45"/><line x1="626" y1="408" x2="781" y2="408" stroke="#f5c542" stroke-width="0.8" opacity="0.45"/><text x="605.5" y="414" text-anchor="middle" font-family="system-ui,-apple-system,'Segoe UI',Roboto,'DejaVu Sans',sans-serif" font-size="16" fill="#f5c542">◈</text><text x="605.5" y="452" text-anchor="middle" font-family="system-ui,-apple-system,'Segoe UI',Roboto,'DejaVu Sans',sans-serif" font-size="15" letter-spacing="5" fill="#f5c542">◈  READY FOR YOURS?  ◈</text><text x="605.5" y="524" text-anchor="middle" font-family="'DejaVu Sans Mono','SFMono-Regular',ui-monospace,Menlo,Consolas,monospace" font-size="72" font-weight="bold" fill="#f5c542">$44</text><text x="605.5" y="560" text-anchor="middle" font-family="'DejaVu Sans Mono','SFMono-Regular',ui-monospace,Menlo,Consolas,monospace" font-size="19" letter-spacing="3" fill="#f4f6ff">GET YOUR PERSONAL SOUL MAP</text><rect x="390.5" y="584" width="430" height="54" rx="27" fill="#7b3ff2"/><text x="605.5" y="619" text-anchor="middle" font-family="system-ui,-apple-system,'Segoe UI',Roboto,'DejaVu Sans',sans-serif" font-size="20" fill="#ffffff">✦  CLAIM YOUR SOUL MAP  ✦</text><text x="605.5" y="672" text-anchor="middle" font-family="system-ui,-apple-system,'Segoe UI',Roboto,'DejaVu Sans',sans-serif" font-size="13" letter-spacing="2" fill="#6f74a0">thefirstspark.shop  ·  12 months of updates  ·  ~5 min delivery</text></svg>